# xmcd CD database file
#
# Track frame offsets:
#	150
#	15792
#	38131
#	54786
#	69595
#	91411
#	108300
#	123620
#	138370
#	155113
#	170057
#	186765
#	204299
#	225575
#
# Disc length: 3238 seconds
#
# Revision: 0
# Processed by: cddbd v1.5.2PL0 Copyright (c) Steve Scherf et al.
# Submitted via: CDex 1.51
#
DISCID=b30ca40e
DTITLE=Steve Tyrell - Back to Bacharach
DYEAR=1900
DGENRE=Jazz
TTITLE0=Walk On By
TTITLE1=The Look of Love
TTITLE2=This Guy's in Love
TTITLE3=One Less Bell to Answer
TTITLE4=What the World Needs Now
TTITLE5=Reach Out for Me
TTITLE6=I Say a Little Prayer for You
TTITLE7=I Just Don't Know What to Do With Myself
TTITLE8=Always Something There to Remind Me
TTITLE9=Don't Make Me Over
TTITLE10=Close To You
TTITLE11=A House is Not a Home
TTITLE12=Alfie
TTITLE13=Raindrops Keep Fallin on My Head
EXTD=
EXTT0=
EXTT1=
EXTT2=
EXTT3=
EXTT4=
EXTT5=
EXTT6=
EXTT7=
EXTT8=
EXTT9=
EXTT10=
EXTT11=
EXTT12=
EXTT13=
PLAYORDER=
